<?xml version="1.0" standalone="no"?>
<!DOCTYPE svg PUBLIC "-//W3C//DTD SVG 20010904//EN"
 "http://www.w3.org/TR/2001/REC-SVG-20010904/DTD/svg10.dtd">
<svg version="1.0" xmlns="http://www.w3.org/2000/svg"
 width="562.000000pt" height="562.000000pt" viewBox="0 0 562.000000 562.000000"
 preserveAspectRatio="xMidYMid meet">
<metadata>
Created by potrace 1.11, written by Peter Selinger 2001-2013
</metadata>
<g transform="translate(0.000000,562.000000) scale(0.100000,-0.100000)"
fill="#000000" stroke="none">
<path d="M499 5568 c-1 -1 -3 -19 -4 -38 -11 -110 -14 -136 -14 -147 -1 -10
-31 -13 -116 -13 l-115 0 -1 -1232 c0 -678 -2 -1242 -4 -1253 -3 -11 -7 -54
-10 -95 -3 -41 -8 -93 -10 -115 -6 -48 -12 -118 -20 -205 -3 -36 -7 -85 -10
-110 -3 -25 -7 -70 -10 -100 -3 -30 -7 -75 -10 -100 -3 -25 -7 -76 -10 -115
-4 -38 -7 -83 -9 -100 -2 -16 -6 -61 -10 -100 -11 -109 -15 -145 -22 -225 -3
-41 -8 -86 -9 -100 -1 -14 -6 -59 -9 -100 -4 -41 -9 -91 -11 -110 -2 -19 -7
-67 -10 -107 -4 -40 -8 -85 -10 -100 -2 -15 -6 -64 -10 -108 -4 -44 -8 -93
-10 -110 -10 -108 -18 -194 -21 -220 -12 -126 -15 -196 -8 -193 5 1 52 -2 104
-7 52 -4 101 -7 107 -6 10 1 13 -25 13 -104 l0 -105 1098 -1 c603 0 1105 -2
1114 -4 9 -2 54 -6 100 -10 46 -3 99 -8 118 -10 19 -2 64 -7 100 -10 36 -3 85
-7 110 -10 25 -3 68 -7 95 -10 28 -2 79 -7 115 -10 36 -4 81 -8 100 -10 83 -7
168 -16 210 -20 25 -3 71 -7 103 -10 33 -3 80 -7 105 -9 65 -7 145 -14 227
-21 39 -3 86 -8 105 -10 67 -8 136 -15 205 -20 39 -3 89 -8 113 -10 87 -10
129 -14 207 -20 44 -3 94 -8 110 -10 17 -3 64 -7 105 -11 41 -3 89 -8 105 -10
211 -23 317 -24 320 -4 3 18 17 165 19 200 2 25 2 25 119 28 l117 3 1 1249 c1
688 2 1253 3 1258 1 4 5 48 10 97 4 50 9 108 11 130 13 133 16 164 21 205 7
67 12 119 19 201 3 41 7 90 9 109 2 19 7 71 10 115 4 44 8 91 11 105 2 14 7
57 10 95 3 39 8 88 10 110 2 22 7 72 10 110 4 39 8 86 10 105 2 19 7 64 10
100 6 80 15 173 20 220 2 19 7 64 10 100 3 36 8 81 10 100 2 19 7 73 11 120 3
47 8 93 10 103 1 9 6 56 9 105 4 48 9 90 12 95 2 4 -2 8 -9 8 -7 1 -26 3 -43
5 -44 5 -127 13 -152 13 -23 1 -23 3 -23 131 l0 130 -1382 1 c-761 0 -1392 2
-1403 4 -11 2 -58 7 -105 11 -47 3 -92 8 -101 9 -8 2 -51 6 -95 10 -43 4 -95
8 -114 10 -19 2 -71 6 -114 10 -44 4 -88 8 -98 10 -10 2 -55 7 -101 10 -45 3
-98 8 -117 10 -19 3 -64 7 -100 10 -36 3 -108 9 -160 15 -52 5 -124 12 -160
15 -36 4 -81 8 -100 10 -51 6 -134 13 -225 21 -44 3 -87 8 -96 9 -9 2 -56 6
-105 10 -49 3 -100 8 -114 10 -46 7 -180 17 -181 13z"/>
</g>
</svg>
